PathFileType	4	(X/Y/Z)	E:\Qualisys_Data\Carbon_Farble_Plate\Data\Amateur_Runner\S2\T1\S2T1V21_c3d.trc
DataRate	CameraRate	NumFrames	NumMarkers	Units	OrigDataRate	OrigDataStartFrame	OrigNumFrames
200.000000	200.000000	4	39	mm	200.000000	118	315
Frame#	Time	LSHO			RSHO			LICST			RICST			LASIS			LHEEL			RASIS			LTROC			RTROC			SACR			LTH1			LSK4			LTH2			LTH3			RHM5			LSK2			LTH4			RTH1			LTOE			RTH2			RTH3			RTH4			LLEP			RLEP			LSK1			LSK3			RSK1			LHM5			RSK2			LFT1			RSK3			RSK4			LLME			RLME			RTOE			RHEEL			RFT1			RFT2			LFT2			
		X1	Y1	Z1	X2	Y2	Z2	X3	Y3	Z3	X4	Y4	Z4	X5	Y5	Z5	X6	Y6	Z6	X7	Y7	Z7	X8	Y8	Z8	X9	Y9	Z9	X10	Y10	Z10	X11	Y11	Z11	X12	Y12	Z12	X13	Y13	Z13	X14	Y14	Z14	X15	Y15	Z15	X16	Y16	Z16	X17	Y17	Z17	X18	Y18	Z18	X19	Y19	Z19	X20	Y20	Z20	X21	Y21	Z21	X22	Y22	Z22	X23	Y23	Z23	X24	Y24	Z24	X25	Y25	Z25	X26	Y26	Z26	X27	Y27	Z27	X28	Y28	Z28	X29	Y29	Z29	X30	Y30	Z30	X31	Y31	Z31	X32	Y32	Z32	X33	Y33	Z33	X34	Y34	Z34	X35	Y35	Z35	X36	Y36	Z36	X37	Y37	Z37	X38	Y38	Z38	X39	Y39	Z39	

119	0.59	-850.8897705078125	1434.864013671875	-488.1338806152344	-868.0687255859375	1435.093994140625	-180.2531280517578	-927.6683349609376	973.7868041992188	-462.5296325683594	-907.8631591796876	972.4993896484376	-158.7036437988281	-872.7575073242188	923.9271850585938	-449.7921752929688	-1300.51171875	150.4732360839844	-319.8636474609375	-848.2460327148438	927.8486328125	-187.8676605224609	-1010.859619140625	856.8500366210938	-445.222900390625	-980.3369750976562	869.3811645507812	-144.5305328369141	-1006.871398925781	1016.919372558594	-309.8306884765625	-928.1139526367188	609.1427612304688	-456.1598205566406	-1165.231567382812	304.2622985839844	-414.7652587890625	-1009.28662109375	618.9197387695312	-453.2850952148438	-940.7854614257812	508.4586791992188	-429.2088317871094	-1029.189575195312	260.9498596191406	-159.5409545898438	-1106.254638671875	383.8959655761719	-435.1539001464844	-1023.605895996094	522.6047973632812	-426.7041625976562	-723.0068969726562	695.22314453125	-143.6351623535156	-1082.83984375	65.52102661132812	-335.2017211914062	-791.1527709960938	653.4240112304688	-136.7203521728516	-672.9243774414062	607.7296752929688	-160.3961944580078	-744.6356811523438	568.2813720703125	-154.9405212402344	-995.7620239257812	469.4851989746094	-427.3920593261719	-708.7459106445312	555.8511962890625	-153.4401245117188	-1042.968505859375	338.1868286132812	-423.0079345703125	-1101.497192382812	258.3758544921875	-406.4405212402344	-773.8933715820312	468.5523681640625	-161.7253723144531	-1136.864379882812	61.20398712158203	-399.5002746582031	-805.3712768554688	542.5278930664062	-154.8200836181641	-1296.605712890625	123.2957458496094	-291.8728637695312	-867.517578125	429.15771484375	-172.8506774902344	-895.9100341796875	504.0193481445312	-167.9344482421875	-1237.993286132812	143.326171875	-378.0598449707031	-1050.617309570312	393.1322937011719	-199.4505004882812	-981.7167358398438	217.8186950683594	-215.9181060791016	-1091.821899414062	433.0120544433594	-259.9426879882812	-1107.21630859375	404.8184814453125	-291.8303527832031	-1115.351318359375	421.8711547851562	-235.7392730712891	-1307.3603515625	122.292610168457	-343.49853515625
120	0.595	-829.1892700195312	1440.70458984375	-486.6657104492188	-849.7152709960938	1440.062744140625	-179.4913482666016	-903.8151245117188	977.6972045898438	-462.7607727050781	-886.640869140625	978.3880615234376	-159.0223541259766	-850.2106323242188	927.2706298828124	-449.1709899902344	-1294.315063476562	158.7577667236328	-321.6489868164062	-827.1668090820312	933.7467041015624	-187.8307647705078	-989.7491455078124	862.0797729492188	-445.0453491210938	-957.8941040039062	876.15283203125	-142.8490753173828	-984.0630493164062	1021.368408203125	-310.9109802246094	-912.8326416015624	611.96142578125	-453.2665710449219	-1157.654541015625	313.3198852539062	-415.4453430175781	-994.038330078125	625.8865966796875	-452.9612731933594	-929.32275390625	513.1782836914062	-427.7912292480469	-988.90283203125	250.9502105712891	-158.3955230712891	-1099.2158203125	392.4839477539062	-435.8858947753906	-1011.896484375	530.1439819335938	-426.5202331542969	-700.5577392578125	702.4149780273438	-144.0746765136719	-1081.723022460938	65.77247619628906	-335.3133544921875	-768.0404052734375	660.3085327148438	-137.5303497314453	-649.578857421875	615.400146484375	-161.2067718505859	-720.7135009765625	575.4552001953125	-155.357421875	-986.39453125	476.0603942871094	-427.5457153320312	-684.9328002929688	562.6129150390625	-154.8452758789062	-1036.1474609375	346.323974609375	-424.3401794433594	-1095.253295898438	266.7715759277344	-408.2560729980469	-745.6769409179688	471.69873046875	-161.3066711425781	-1135.6328125	62.45127105712891	-399.4838256835938	-781.4495849609375	543.7760009765625	-156.0747222900391	-1291.350463867188	132.1952514648438	-293.1169738769531	-837.4881591796875	427.8552856445312	-172.4169006347656	-869.9013671875	500.4920349121094	-168.162109375	-1230.869750976562	149.8509368896484	-379.3854675292969	-1018.694213867188	381.4255676269531	-198.7975463867188	-939.0502319335938	211.579833984375	-215.1420288085938	-1063.191040039062	419.2015686035156	-257.1726684570312	-1076.512817382812	390.0758361816406	-290.2231140136719	-1086.227905273438	406.05029296875	-234.1414337158203	-1302.37158203125	130.78466796875	-344.7259521484375
121	0.6	-807.0999145507812	1446.431396484375	-485.3569030761719	-830.9789428710938	1444.798706054688	-179.0763702392578	-879.9686889648438	981.8060302734376	-462.2976989746094	-865.5979614257812	984.1637573242188	-159.0945129394531	-827.9786987304688	930.5606079101562	-448.2721252441406	-1286.4716796875	168.9275665283203	-323.2815246582031	-805.704833984375	939.399169921875	-188.1170806884766	-968.76953125	867.4031982421875	-444.7833862304688	-935.3201293945312	883.034423828125	-141.3318939208984	-962.3972778320312	1025.907592773438	-311.9628295898438	-897.0472412109375	616.5009765625	-452.3307189941406	-1150.452392578125	322.25927734375	-416.8455810546875	-978.2566528320312	633.3591918945312	-452.964599609375	-917.9537963867188	518.2296142578125	-426.3052062988281	-947.7300415039062	241.6132965087891	-157.6120452880859	-1091.417114257812	400.906494140625	-436.7677001953125	-1000.25830078125	538.257568359375	-426.7981567382812	-677.9986572265625	709.3370361328125	-144.1884307861328	-1079.845947265625	65.4797134399414	-335.4868774414062	-745.0193481445312	666.5491333007812	-138.0767211914062	-626.383544921875	622.7154541015625	-162.167724609375	-697.255126953125	582.5276489257812	-155.6985015869141	-976.5686645507812	483.229736328125	-427.9221801757812	-661.218505859375	569.6762084960938	-155.2853393554688	-1028.426147460938	354.7150573730469	-426.0861206054688	-1088.81005859375	275.4400634765625	-410.6645812988281	-718.38134765625	474.6405639648438	-161.1828002929688	-1133.255004882812	63.74899291992188	-400.104736328125	-757.3613891601562	545.0851440429688	-156.298828125	-1284.1943359375	142.2487335205078	-294.5706481933594	-807.7965087890625	426.2678527832031	-172.3003845214844	-844.1615600585938	496.6143188476562	-168.0791625976562	-1223.198974609375	156.3249816894531	-380.896240234375	-986.384521484375	369.6458129882812	-197.7811279296875	-896.2843627929688	205.3120422363281	-215.1104736328125	-1034.592407226562	405.2156066894531	-255.7180480957031	-1044.7236328125	374.8482360839844	-287.1119995117188	-1055.093139648438	390.5276489257812	-232.1467590332031	-1295.414672851562	140.6021423339844	-346.3328552246094
122	0.605	-785.3515014648438	1452.637939453125	-483.8226318359375	-812.292724609375	1449.606323242188	-178.5105590820312	-856.2601928710938	985.3482666015624	-462.0189819335938	-844.1488647460938	989.9572143554688	-159.2318267822266	-805.7178955078125	934.1697998046876	-447.3709106445312	-1277.05419921875	179.1682739257812	-325.7682800292969	-784.663330078125	945.0794677734376	-187.8941345214844	-947.77978515625	872.6658935546875	-444.6963806152344	-912.2251586914062	889.5673217773438	-139.8579559326172	-941.5734252929688	1030.839965820312	-313.5704040527344	-881.0254516601562	621.1813354492188	-450.9835510253906	-1142.11767578125	331.1261291503906	-417.8834838867188	-962.1263427734376	640.4808959960938	-453.3089904785156	-905.4891967773438	523.6524047851562	-425.9230651855469	-906.8400268554688	232.5162048339844	-157.4217224121094	-1082.736694335938	409.9419860839844	-437.7690734863281	-987.3255615234376	545.9739990234375	-426.9909362792969	-655.3326416015625	715.8206787109375	-144.9351501464844	-1077.5390625	65.74471282958984	-337.2174987792969	-721.9774780273438	673.0515747070312	-138.6336212158203	-603.4393310546875	629.3087158203125	-162.9588928222656	-674.6025390625	588.9009399414062	-157.7515563964844	-965.8291015625	490.3490600585938	-428.4021301269531	-638.1534423828125	576.0016479492188	-156.88818359375	-1019.901550292969	362.8109436035156	-427.8465881347656	-1080.398681640625	283.8872680664062	-413.1194152832031	-691.388671875	476.7180480957031	-161.3040771484375	-1130.391357421875	65.0701675415039	-401.0130004882812	-733.633544921875	545.3972778320312	-157.0503387451172	-1275.899169921875	153.5459136962891	-296.5055847167969	-778.23876953125	423.7262268066406	-172.1198425292969	-818.2662353515625	492.6293334960938	-167.2679901123047	-1215.518432617188	163.5369110107422	-383.5431213378906	-953.54150390625	357.670654296875	-196.6779174804688	-853.6254272460938	199.5127563476562	-214.9462280273438	-1003.890869140625	391.2139282226562	-254.1987457275391	-1008.185363769531	359.4897155761719	-287.7197875976562	-1023.378173828125	375.1633605957031	-230.8345184326172	-1289.701782226562	152.62255859375	-349.7519226074219
